<svg width="24" height="24" viewBox="0 0 24 24" fill="none" xmlns="http://www.w3.org/2000/svg">
<g clip-path="url(#clip0_14_4878)">
<rect width="24" height="24" rx="12" fill="#212121"/>
<path d="M11.5 10.6316C9.14848 10.6316 8.67196 7.01053 8.67196 7.01053C8.39227 5.12632 9.24171 3 11.4689 3C13.7065 3 14.5559 5.12632 14.2762 7.01053C14.2762 7.01053 13.8515 10.6316 11.5 10.6316ZM11.5 13.3368L14.3177 11.4211C16.7935 11.4211 19 13.8737 19 16.1895V18.8105C19 18.8105 15.2189 20 11.5 20C7.71892 20 4 18.8105 4 18.8105V16.1895C4 13.8211 6.00967 11.4737 8.63053 11.4737L11.5 13.3368Z" fill="#EEEEEE"/>
</g>
<defs>
<clipPath id="clip0_14_4878">
<rect width="24" height="24" rx="12" fill="white"/>
</clipPath>
</defs>
</svg>
